<svg width="26" height="26" viewBox="0 0 26 26" fill="none" xmlns="http://www.w3.org/2000/svg">
<circle cx="13" cy="13" r="12.6579" stroke="black" stroke-width="0.684211"/>
<path d="M6.29345 14.6512C5.68365 13.6349 5.68365 12.3652 6.29345 11.3488C6.47954 11.0387 6.78783 10.8214 7.14249 10.7505L8.59047 10.4609C8.67674 10.4436 8.7545 10.3974 8.81082 10.3298L10.5804 8.20625C11.5918 6.99258 12.0975 6.38574 12.5488 6.54913C13.0001 6.71252 13.0001 7.50244 13.0001 9.0823L13.0001 16.9177C13.0001 18.4976 13.0001 19.2875 12.5488 19.4509C12.0975 19.6143 11.5918 19.0075 10.5804 17.7938L8.81082 15.6703C8.7545 15.6027 8.67674 15.5564 8.59047 15.5391L7.14249 15.2495C6.78783 15.1786 6.47954 14.9614 6.29345 14.6512Z" fill="black"/>
<path d="M15.5645 15.5658L20.696 10.4342" stroke="black" stroke-width="1.71053" stroke-linecap="round"/>
<path d="M20.6973 15.5658L15.5657 10.4342" stroke="black" stroke-width="1.71053" stroke-linecap="round"/>
</svg>
